<?xml version="1.0" encoding="UTF-8"?><!DOCTYPE svg PUBLIC "-//W3C//DTD SVG 1.1//EN" "http://www.w3.org/Graphics/SVG/1.1/DTD/svg11.dtd"><svg xmlns="http://www.w3.org/2000/svg"><symbol id="facebook-logo-white" viewBox="0 0 96.124 96.123"><path d="M72.089.02L59.624 0C45.62 0 36.57 9.285 36.57 23.656v10.907H24.037a1.96 1.96 0 0 0-1.96 1.961v15.803a1.96 1.96 0 0 0 1.96 1.96H36.57v39.876a1.96 1.96 0 0 0 1.96 1.96h16.352a1.96 1.96 0 0 0 1.96-1.96V54.287h14.654a1.96 1.96 0 0 0 1.96-1.96l.006-15.803a1.963 1.963 0 0 0-1.961-1.961H56.842v-9.246c0-4.444 1.059-6.7 6.848-6.7l8.397-.003a1.96 1.96 0 0 0 1.959-1.96V1.98A1.96 1.96 0 0 0 72.089.02z" fill="fff"/></symbol><symbol id="google-logo-white" viewBox="0 0 604.35 604.35"><path d="M516.375 255v-76.5h-51V255h-76.5v51h76.5v76.5h51V306h76.5v-51h-76.5zm-196.35 86.7l-28.051-20.4c-10.2-7.649-20.399-17.85-20.399-35.7s12.75-33.15 25.5-40.8c33.15-25.5 66.3-53.55 66.3-109.65 0-53.55-33.15-84.15-51-99.45h43.35l30.6-35.7h-158.1c-112.2 0-168.3 71.4-168.3 147.9 0 58.65 45.9 122.4 127.5 122.4h20.4c-2.55 7.65-10.2 20.4-10.2 33.15 0 25.5 10.2 35.7 22.95 51-35.7 2.55-102 10.2-150.45 40.8-45.9 28.05-58.65 66.3-58.65 94.35 0 58.65 53.55 114.75 168.3 114.75 137.7 0 204.001-76.5 204.001-150.449-.001-53.551-28.051-81.601-63.751-112.201zm-193.8-232.05c0-56.1 33.15-81.6 68.85-81.6 66.3 0 102 89.25 102 140.25 0 66.3-53.55 79.05-73.95 79.05-63.75 0-96.9-79.05-96.9-137.7zm91.799 459c-84.15 0-137.7-38.25-137.7-94.351 0-56.1 51-73.95 66.3-81.6 33.15-10.2 76.5-12.75 84.15-12.75h17.85c61.2 43.35 86.7 61.2 86.7 102 0 48.451-48.449 86.701-117.3 86.701z" fill="#FFF"/></symbol><symbol id="linkedin-logo-white" viewBox="0 0 430.117 430.117"><path d="M430.117 261.543V420.56h-92.188V272.193c0-37.271-13.334-62.707-46.703-62.707-25.473 0-40.632 17.142-47.301 33.724-2.432 5.928-3.058 14.179-3.058 22.477V420.56h-92.219s1.242-251.285 0-277.32h92.21v39.309c-.187.294-.43.611-.606.896h.606v-.896c12.251-18.869 34.13-45.824 83.102-45.824 60.673-.001 106.157 39.636 106.157 124.818zM52.183 9.558C20.635 9.558 0 30.251 0 57.463c0 26.619 20.038 47.94 50.959 47.94h.616c32.159 0 52.159-21.317 52.159-47.94-.606-27.212-20-47.905-51.551-47.905zM5.477 420.56h92.184V143.24H5.477v277.32z" fill="#FFF"/></symbol><symbol id="twitter-logo-white" viewBox="0 0 410.155 410.155"><path d="M403.632 74.18a162.414 162.414 0 0 1-28.28 9.537 88.177 88.177 0 0 0 23.275-37.067c1.295-4.051-3.105-7.554-6.763-5.385a163.188 163.188 0 0 1-43.235 17.862 11.02 11.02 0 0 1-2.702.336c-2.766 0-5.455-1.027-7.57-2.891-16.156-14.239-36.935-22.081-58.508-22.081-9.335 0-18.76 1.455-28.014 4.325-28.672 8.893-50.795 32.544-57.736 61.724-2.604 10.945-3.309 21.9-2.097 32.56a3.166 3.166 0 0 1-.797 2.481 3.278 3.278 0 0 1-2.753 1.091c-62.762-5.831-119.358-36.068-159.363-85.14-2.04-2.503-5.952-2.196-7.578.593-7.834 13.44-11.974 28.812-11.974 44.454 0 23.972 9.631 46.563 26.36 63.032a79.24 79.24 0 0 1-20.169-7.808c-3.06-1.7-6.825.485-6.868 3.985-.438 35.612 20.412 67.3 51.646 81.569a79.567 79.567 0 0 1-16.786-1.399c-3.446-.658-6.341 2.611-5.271 5.952 10.138 31.651 37.39 54.981 70.002 60.278-27.066 18.169-58.585 27.753-91.39 27.753l-10.227-.006c-3.151 0-5.816 2.054-6.619 5.106-.791 3.006.666 6.177 3.353 7.74 36.966 21.513 79.131 32.883 121.955 32.883 37.485 0 72.549-7.439 104.219-22.109 29.033-13.449 54.689-32.674 76.255-57.141 20.09-22.792 35.8-49.103 46.692-78.201 10.383-27.737 15.871-57.333 15.871-85.589v-1.346c-.001-4.537 2.051-8.806 5.631-11.712a174.776 174.776 0 0 0 35.16-38.591c2.573-3.849-1.485-8.673-5.719-6.795z" fill="#fff"/></symbol><symbol id="youtube-logo-white" viewBox="0 0 90 90"><path d="M70.939 65.832H66l.023-2.869a2.329 2.329 0 0 1 2.326-2.318h.315a2.332 2.332 0 0 1 2.332 2.318l-.057 2.869zm-18.526-6.148c-1.253 0-2.278.842-2.278 1.873V75.51c0 1.029 1.025 1.869 2.278 1.869 1.258 0 2.284-.84 2.284-1.869V61.557c0-1.032-1.026-1.873-2.284-1.873zM82.5 51.879v26.544C82.5 84.79 76.979 90 70.23 90H19.771C13.02 90 7.5 84.79 7.5 78.423V51.879c0-6.367 5.52-11.578 12.271-11.578H70.23c6.749 0 12.27 5.211 12.27 11.578zM23.137 81.305l-.004-27.961 6.255.002v-4.143l-16.674-.025v4.073l5.205.015v28.039h5.218zm18.75-23.796h-5.215V72.44c0 2.16.131 3.24-.008 3.621-.424 1.158-2.33 2.388-3.073.125-.126-.396-.015-1.591-.017-3.643l-.021-15.034h-5.186l.016 14.798c.004 2.268-.051 3.959.018 4.729.127 1.357.082 2.939 1.341 3.843 2.346 1.69 6.843-.252 7.968-2.668l-.01 3.083 4.188.005-.001-23.79zM58.57 74.607l-.011-12.427c-.004-4.736-3.547-7.572-8.356-3.74l.021-9.239-5.209.008-.025 31.89 4.284-.062.39-1.986c5.473 5.021 8.914 1.58 8.906-4.444zm16.321-1.647l-3.91.021c-.002.155-.008.334-.01.529v2.182c0 1.168-.965 2.119-2.137 2.119h-.766c-1.174 0-2.139-.951-2.139-2.119v-5.739h8.954v-3.37c0-2.463-.063-4.925-.267-6.333-.641-4.454-6.893-5.161-10.051-2.881a5.887 5.887 0 0 0-2.188 2.945c-.444 1.281-.665 3.031-.665 5.254v7.41c.002 12.318 14.964 10.577 13.179-.018zM54.833 32.732a3.55 3.55 0 0 0 1.254 1.584c.56.394 1.276.592 2.134.592.752 0 1.418-.203 1.998-.622.578-.417 1.065-1.04 1.463-1.871l-.099 2.046h5.813V9.74H62.82v19.24a1.907 1.907 0 0 1-3.811 0V9.74h-4.776v16.674c0 2.124.039 3.54.102 4.258.065.713.229 1.397.498 2.06zM37.217 18.77c0-2.373.198-4.226.591-5.562.396-1.331 1.107-2.401 2.137-3.208 1.027-.811 2.342-1.217 3.941-1.217 1.345 0 2.497.264 3.459.781.967.52 1.713 1.195 2.23 2.028a8 8 0 0 1 1.076 2.574c.195.891.291 2.235.291 4.048v6.252c0 2.293-.092 3.98-.271 5.051a8.006 8.006 0 0 1-1.146 3.004c-.58.924-1.329 1.615-2.237 2.056-.918.445-1.968.663-3.154.663-1.325 0-2.441-.183-3.361-.565-.923-.38-1.636-.953-2.144-1.714-.513-.762-.874-1.69-1.092-2.772-.219-1.081-.323-2.707-.323-4.874l.003-6.545zm4.553 9.82c0 1.4 1.042 2.543 2.311 2.543 1.27 0 2.308-1.143 2.308-2.543V15.43c0-1.398-1.038-2.541-2.308-2.541-1.269 0-2.311 1.143-2.311 2.541v13.16zm-16.088 6.645h5.484l.006-18.96L37.652.033h-5.998l-3.445 12.064L24.715 0h-5.936l6.894 16.284.009 18.951z" fill="#FFF"/></symbol></svg>